<?xml version="1.0" encoding="UTF-8"?><svg id="Ebene_1" xmlns="http://www.w3.org/2000/svg" viewBox="0 0 80 63.94"><defs><style>.cls-1{fill:#fff;stroke-width:0px;}</style></defs><path class="cls-1" d="m.61,33.6l20.24,11.95c.83.49,1.88-.11,1.88-1.07V1.61c0-.81-.77-1.41-1.56-1.21L.94,5.62c-.55.14-.94.64-.94,1.21v25.7c0,.44.23.85.61,1.07Z"/><path class="cls-1" d="m79.39,33.6l-20.24,11.95c-.83.49-1.88-.11-1.88-1.07V1.61c0-.81.77-1.41,1.56-1.21l20.24,5.22c.55.14.94.64.94,1.21v25.7c0,.44-.23.85-.61,1.07Z"/><path class="cls-1" d="m27.04,1.25v28c0,.09,0,.18.03.26l7.18,33.45c.12.57.63.98,1.22.98h9.06c.59,0,1.1-.41,1.22-.98l7.18-33.45c.02-.09.03-.17.03-.26V1.25c0-.69-.56-1.25-1.25-1.25h-23.43c-.69,0-1.25.56-1.25,1.25Z"/></svg>